<svg xmlns="http://www.w3.org/2000/svg" viewBox="5000 5000 600 600" width="600" height="600" data-guides="{&quot;vertical&quot;:[],&quot;horizontal&quot;:[]}">
    <path class="svg" fill="transparent" stroke="#000000" fill-opacity="1" stroke-width="15" stroke-opacity="1" font-size-adjust="none" title="Rectangle 3" id="tSvgccf6683171" d="M 5120.000172334561 5142.500038296568 C 5120.000172334557 5130.0736314253745 5130.073765463368 5120.000038296567 5142.50017233456 5120.000038296567C 5300.000172334562 5120.000038296569 5359.062672334557 5120.000038296569 5457.500172334561 5120.000038296568C 5469.9265792057495 5120.000038296563 5480.000172334558 5130.073631425375 5480.000172334558 5142.500038296568C 5480.000172334559 5300.000038296572 5480.000172334558 5359.062538296574 5480.000172334558 5457.500038296568C 5480.000172334562 5469.92644516776 5469.926579205752 5480.000038296569 5457.5001723345595 5480.000038296567C 5300.000172334559 5480.000038296568 5240.937672334555 5480.000038296566 5142.500172334559 5480.00003829657C 5130.073765463367 5480.000038296568 5120.00017233456 5469.926445167761 5120.000172334556 5457.500038296565C 5120.000172334555 5300.000038296571 5120.000172334557 5240.937538296566 5120.000172334561 5142.500038296568Z"/>
    <path class="svg-stroke" fill="transparent" stroke="#000000" fill-opacity="1" stroke-width="15" stroke-opacity="1" id="tSvg7be2c14f95" title="Path 6" d="M 5326.7060546875 5273.490234375 C 5326.7060546875 5273.490234375 5440.879608406508 5158.490234375 5440.879608406508 5158.490234375" marker-end="url(#tSvgMarkerend7be2c14f95)" stroke-linecap="butt"/>
    <path class="svg-stroke" fill="transparent" stroke="#000000" fill-opacity="1" stroke-width="15" stroke-opacity="1" stroke-linecap="butt" id="tSvg15836b8c832" title="Path 8" d="M 5273.6298828125 5327.490234375 C 5273.6298828125 5327.490234375 5159.4562828125 5442.490234375 5159.4562828125 5442.490234375" marker-end="url(#tSvgMarkerend15836b8c832)"/>
    <defs>
        <marker class="svg-fill" data-type="line-arrow" id="tSvgMarkerend7be2c14f95" markerWidth="5" markerHeight="8" viewBox="0 0 5 8" refX="3.2" refY="3.68" orient="auto-start-reverse" fill="#000000">
            <path d="M4.03557 4.03553C4.23077 3.84027 4.23077 3.52369 4.03557 3.32843L0.853575 0.146446C0.658275 -0.0488154 0.341675 -0.0488154 0.146475 0.146446C-0.048825 0.341708 -0.048825 0.658291 0.146475 0.85355L2.97487 3.68198L0.146475 6.51041C-0.048825 6.70567 -0.048825 7.02225 0.146475 7.21751C0.341675 7.41278 0.658275 7.41278 0.853575 7.21751L4.03557 4.03553Z"/>
        </marker>
        <marker class="svg-fill" data-type="line-arrow" id="tSvgMarkerend15836b8c832" markerWidth="5" markerHeight="8" viewBox="0 0 5 8" refX="3.2" refY="3.68" orient="auto-start-reverse" fill="#000000">
            <path d="M4.03557 4.03553C4.23077 3.84027 4.23077 3.52369 4.03557 3.32843L0.853575 0.146446C0.658275 -0.0488154 0.341675 -0.0488154 0.146475 0.146446C-0.048825 0.341708 -0.048825 0.658291 0.146475 0.85355L2.97487 3.68198L0.146475 6.51041C-0.048825 6.70567 -0.048825 7.02225 0.146475 7.21751C0.341675 7.41278 0.658275 7.41278 0.853575 7.21751L4.03557 4.03553Z"/>
        </marker>
    </defs>
</svg>