<svg xmlns="http://www.w3.org/2000/svg" viewBox="5000 5000 600 600" width="600" height="600" data-guides="{&quot;vertical&quot;:[],&quot;horizontal&quot;:[]}">
    <path class="svg" fill="transparent" stroke="#000000" fill-opacity="1" stroke-width="15" stroke-opacity="1" title="Rectangle 2" d="M 5075 5330 C 5075 5313.431457505077 5088.431457505076 5300 5105 5300C 5105 5300 5195 5300 5195 5300C 5211.568542494923 5300 5225 5313.431457505076 5225 5330C 5225 5330 5225 5470 5225 5470C 5225 5486.568542494923 5211.568542494924 5500 5195 5500C 5195 5500 5105 5500 5105 5500C 5088.431457505077 5500 5075 5486.568542494924 5075 5470C 5075 5470 5075 5330 5075 5330ZM 5375 5330 C 5375 5313.431457505077 5388.431457505076 5300 5405 5300C 5405 5300 5495 5300 5495 5300C 5511.568542494923 5300 5525 5313.431457505076 5525 5330C 5525 5330 5525 5470 5525 5470C 5525 5486.568542494923 5511.568542494924 5500 5495 5500C 5495 5500 5405 5500 5405 5500C 5388.431457505077 5500 5375 5486.568542494924 5375 5470C 5375 5470 5375 5330 5375 5330Z" rx="30" ry="30" id="tSvg1398626c7df" style="transform-origin: 5450px 5400px;"/>
    <path class="svg" fill="transparent" stroke="#000000" fill-opacity="1" stroke-width="15" stroke-opacity="1" id="tSvg17394ad44c6" title="Path 6" d="M 5124.994451230552 5300.000234730321 A 0 0 0 0 1 5124.994451230552 5300.000234730321 C 5124.994451230552 5300.000234730321 5128.49445123055 5096.717755054085 5303.994451230548 5100.040351304364 C 5479.494451230552 5103.362947554653 5474.994451230549 5300.000234730323 5474.994451230549 5300.000234730323L 5474.994451230549 5300.000234730323 A 0 0 0 0 1 5474.994451230549 5300.000234730323L 5418.971348920316 5300.000234730317 A 0 0 0 0 1 5418.971348920316 5300.000234730317 C 5418.971348920316 5300.000234730317 5414.994451230547 5162.867625855116 5303.994451230548 5160.451192218551 C 5192.994451230547 5158.034758581982 5181.994451230552 5300.000234730316 5181.994451230552 5300.000234730316L 5181.994451230552 5300.000234730316 A 0 0 0 0 1 5181.994451230552 5300.000234730316Z" style=""/>
    <defs/>
</svg>