<svg xmlns="http://www.w3.org/2000/svg" viewBox="5000 5000 600 600" width="600" height="600" data-guides="{&quot;vertical&quot;:[],&quot;horizontal&quot;:[]}">
    <path fill="transparent" stroke="#000000" fill-opacity="1" stroke-width="15" stroke-opacity="1" font-size-adjust="none" class="svg" title="Rectangle 3" id="tSvgccf6683171" d="M 5120.000172334561 5142.500038296568 C 5120.000172334557 5130.0736314253745 5130.073765463368 5120.000038296567 5142.50017233456 5120.000038296567C 5300.000172334562 5120.000038296569 5359.062672334557 5120.000038296569 5457.500172334561 5120.000038296568C 5469.9265792057495 5120.000038296563 5480.000172334558 5130.073631425375 5480.000172334558 5142.500038296568C 5480.000172334559 5300.000038296572 5480.000172334558 5359.062538296574 5480.000172334558 5457.500038296568C 5480.000172334562 5469.92644516776 5469.926579205752 5480.000038296569 5457.5001723345595 5480.000038296567C 5300.000172334559 5480.000038296568 5240.937672334555 5480.000038296566 5142.500172334559 5480.00003829657C 5130.073765463367 5480.000038296568 5120.00017233456 5469.926445167761 5120.000172334556 5457.500038296565C 5120.000172334555 5300.000038296571 5120.000172334557 5240.937538296566 5120.000172334561 5142.500038296568Z"/>
    <path fill="rgb(0, 0, 0)" stroke="none" fill-opacity="1" stroke-width="1" stroke-opacity="1" font-size-adjust="none" class="svg-stroke" id="tSvg29c404401a" title="Path 3" d="M 264.32968764705856 228.54533392156816 C 264.52488764705856 228.35007392156817 264.52488764705856 228.03349392156815 264.32968764705856 227.83823392156816C 263.26902264705853 226.77757258823482 262.20835764705856 225.7169112549015 261.14769264705853 224.65624992156816C 260.95239264705856 224.46098852156817 260.63579264705857 224.46098852156817 260.44059264705857 224.65624992156816C 260.24529264705853 224.85151192156818 260.24529264705853 225.16809492156816 260.44059264705857 225.36335392156818C 261.3833909803919 226.30616392156816 262.3261893137252 227.24897392156817 263.26898764705857 228.19178392156817C 262.3261893137252 229.13459392156815 261.3833909803919 230.07740392156816 260.44059264705857 231.02021392156817C 260.24529264705853 231.21547392156816 260.24529264705853 231.53205392156815 260.44059264705857 231.72731392156817C 260.63579264705857 231.92258392156816 260.95239264705856 231.92258392156816 261.14769264705853 231.72731392156817C 262.20835764705856 230.66665392156816 263.26902264705853 229.60599392156817 264.32968764705856 228.54533392156816Z"/>
    <path fill="rgb(0, 0, 0)" stroke="none" fill-opacity="1" stroke-width="1" stroke-opacity="1" font-size-adjust="none" id="tSvg8e2f5304a7" title="Path 4" d="M 264.32968764705856 228.54533392156816 C 264.52488764705856 228.35007392156817 264.52488764705856 228.03349392156815 264.32968764705856 227.83823392156816C 263.26902264705853 226.77757258823482 262.20835764705856 225.7169112549015 261.14769264705853 224.65624992156816C 260.95239264705856 224.46098852156817 260.63579264705857 224.46098852156817 260.44059264705857 224.65624992156816C 260.24529264705853 224.85151192156818 260.24529264705853 225.16809492156816 260.44059264705857 225.36335392156818C 261.3833909803919 226.30616392156816 262.3261893137252 227.24897392156817 263.26898764705857 228.19178392156817C 262.3261893137252 229.13459392156815 261.3833909803919 230.07740392156816 260.44059264705857 231.02021392156817C 260.24529264705853 231.21547392156816 260.24529264705853 231.53205392156815 260.44059264705857 231.72731392156817C 260.63579264705857 231.92258392156816 260.95239264705856 231.92258392156816 261.14769264705853 231.72731392156817C 262.20835764705856 230.66665392156816 263.26902264705853 229.60599392156817 264.32968764705856 228.54533392156816Z"/>
    <path fill="transparent" stroke="#000000" fill-opacity="1" stroke-width="15" stroke-opacity="1" id="tSvg7be2c14f95" title="Path 6" d="M 5440.87939453125 5158.490234375L 5326.705840812242 5273.490234375" marker-end="url(#tSvgMarkerend7be2c14f95)" stroke-linecap="butt"/><path fill="transparent" stroke="#000000" fill-opacity="1" stroke-width="15" stroke-opacity="1" stroke-linecap="butt" id="tSvg15836b8c832" title="Path 8" d="M 5159.456054687499 5442.490234375 C 5159.456054687499 5442.490234375 5273.629654687502 5327.490234374998 5273.629654687502 5327.490234374998" marker-end="url(#tSvgMarkerend15836b8c832)"/>
    <defs>
        <marker data-type="line-arrow" id="tSvgMarkerend7be2c14f95" markerWidth="5" markerHeight="8" viewBox="0 0 5 8" refX="3.2" refY="3.68" orient="auto-start-reverse" fill="#000000">
            <path d="M4.03557 4.03553C4.23077 3.84027 4.23077 3.52369 4.03557 3.32843L0.853575 0.146446C0.658275 -0.0488154 0.341675 -0.0488154 0.146475 0.146446C-0.048825 0.341708 -0.048825 0.658291 0.146475 0.85355L2.97487 3.68198L0.146475 6.51041C-0.048825 6.70567 -0.048825 7.02225 0.146475 7.21751C0.341675 7.41278 0.658275 7.41278 0.853575 7.21751L4.03557 4.03553Z"/>
        </marker>
        <marker data-type="line-arrow" id="tSvgMarkerend15836b8c832" markerWidth="5" markerHeight="8" viewBox="0 0 5 8" refX="3.2" refY="3.68" orient="auto-start-reverse" fill="#000000">
            <path d="M4.03557 4.03553C4.23077 3.84027 4.23077 3.52369 4.03557 3.32843L0.853575 0.146446C0.658275 -0.0488154 0.341675 -0.0488154 0.146475 0.146446C-0.048825 0.341708 -0.048825 0.658291 0.146475 0.85355L2.97487 3.68198L0.146475 6.51041C-0.048825 6.70567 -0.048825 7.02225 0.146475 7.21751C0.341675 7.41278 0.658275 7.41278 0.853575 7.21751L4.03557 4.03553Z"/>
        </marker>
    </defs>
</svg>