<svg xmlns="http://www.w3.org/2000/svg" viewBox="5000 5000 600 600" width="600" height="600" data-guides="{&quot;vertical&quot;:[],&quot;horizontal&quot;:[]}">
    <path class="svg" fill="transparent" stroke="#000000" fill-opacity="1" stroke-width="15" stroke-opacity="1" title="Path 3" d="M 5219.178911644574 5422.924323156761 C 5219.178911644574 5422.924323156761 5291.975610092418 5440.441801355713 5362.679109644321 5371.152443218028C 5433.386216425559 5301.859549999236 5412.157377045711 5229.259973380556 5412.157377045711 5229.259973380556C 5412.157377045711 5229.259973380556 5481.678911644513 5159.924323156668 5481.678911644513 5159.924323156668C 5481.678911644513 5159.924323156668 5494.75337478744 5174.131315146317 5515.178911644399 5200.924323156939C 5535.604448501691 5227.717331167546 5499.395058387498 5354.682851247178 5422.429632654584 5430.902966228289C 5345.464206921464 5507.123081209122 5214.967226214929 5530.55537627664 5198.477411912022 5517.625822889316C 5161.373329830415 5488.532759659538 5156.178911644422 5484.924323156736 5156.178911644586 5484.924323156735C 5156.178911644586 5484.924323156735 5219.178911644574 5422.924323156761 5219.178911644574 5422.924323156761ZM 5068.012848327291 5433.291070067871 C 5110.73455252486 5476.288012349917 5099.7936821060675 5466.2547844114915 5117.379595238259 5482.657816978839C 5134.965508370456 5499.060849546182 5156.160610035648 5484.729230618629 5158.232023675436 5482.657816978838C 5178.1194018963115 5462.770438757981 5221.366855779426 5419.688840430709 5221.871633982243 5419.018206672062C 5228.4803527067115 5410.238053620054 5233.0057990240975 5393.328552811535 5217.178911644577 5377.118659094246C 5214.243267832777 5374.1119735066195 5218.230327770837 5377.584288782892 5170.682085472747 5330.621832922416C 5065.870137275028 5434.880952536554 5170.982133906414 5330.622320260079 5068.012848327291 5433.291070067871ZM 5428.689540744496 5068.482233506736 C 5478.9407746504485 5119.130394537425 5470.760328832014 5110.553021594263 5479.599128832004 5119.391821594245C 5491.314928832006 5131.107621594249 5491.314928832006 5150.102521594272 5479.599128832019 5161.818221594246C 5447.779328832005 5193.638021594231 5435.846928832023 5205.570521594242 5415.959528832013 5225.457821594256C 5404.243828831994 5237.17362159424 5385.24892883201 5237.173621594244 5373.533128832015 5225.457821594249C 5360.537811034779 5212.462503797011 5371.400551415084 5223.973320804514 5322.623540744497 5174.548233506733C 5428.700266520459 5067.709156635692 5322.2266847049295 5175.115664195028 5428.689540744496 5068.482233506736Z" id="tSvg35b38c4e0e"/>
    <defs/>
</svg>